<svg xmlns="http://www.w3.org/2000/svg" version="1.1" xmlns:xlink="http://www.w3.org/1999/xlink" width="512" height="512" x="0" y="0" viewBox="0 0 256 256" style="enable-background:new 0 0 512 512" xml:space="preserve" class=""><g><path fill="#1e81ce" d="M41.359 98.406h30.538v140.122H41.359z" opacity="1" data-original="#1e81ce"></path><path fill="#009986" d="M89.647 136.263h30.538v102.265H89.647z" opacity="1" data-original="#009986"></path><path fill="#1e81ce" d="M137.833 170.819h30.538v67.709h-30.538z" opacity="1" data-original="#1e81ce"></path><path fill="#009986" d="M186.02 193.826h30.538v44.703H186.02z" opacity="1" data-original="#009986"></path><circle cx="201.094" cy="122.877" r="30.684" fill="#ffa12e" opacity="1" data-original="#ffa12e" class=""></circle><circle cx="201.094" cy="122.877" r="23.336" fill="#ffda44" opacity="1" data-original="#ffda44"></circle><path d="M219.308 236.328v-41.952l-2.75-2.75H186.02l-2.75 2.75v41.953h-12.149v-64.96l-2.75-2.75h-30.537l-2.75 2.75v64.959h-12.149v-99.515l-2.75-2.75H89.647l-2.75 2.75v99.516H74.646V98.956l-2.75-2.75H41.359l-2.75 2.75v137.372H21.484v5.5h215.05v-5.5zm-150.161 0H44.109V101.706h25.037zm48.288 0H92.4v-96.765h25.038zm48.186 0h-25.037v-62.209h25.037zm48.187 0H188.77v-39.2h25.038zM146.607 103.381l2.778-4.747a160.4 160.4 0 0 1-52.861-50.255l-4.6 3.015a165.929 165.929 0 0 0 54.683 51.987zM155.993 138.832l2.108-5.08A186.663 186.663 0 0 1 61.6 42.69l-4.949 2.4a192.156 192.156 0 0 0 99.342 93.742zM174.355 87.389l2.209-5.037a132.659 132.659 0 0 1-64.7-61.011l-4.9 2.5a138.176 138.176 0 0 0 67.391 63.548zM201.094 156.861a33.434 33.434 0 1 0-33.433-33.433 33.472 33.472 0 0 0 33.433 33.433zm0-61.367a27.934 27.934 0 1 1-27.933 27.934 27.966 27.966 0 0 1 27.933-27.935z" fill="#000000" opacity="1" data-original="#000000"></path><path d="M201.094 149.513a26.086 26.086 0 1 0-26.086-26.086 26.115 26.115 0 0 0 26.086 26.086zm0-46.672a20.586 20.586 0 1 1-20.586 20.586 20.609 20.609 0 0 1 20.586-20.586z" fill="#000000" opacity="1" data-original="#000000"></path><path d="M198.706 132.211a5.807 5.807 0 0 1-2.239-1.457 6.066 6.066 0 0 1-1.382-2.463l-.19-.619-4.211.83.261.776c1.4 4.149 4.135 6.584 8.143 7.278v2.823h4.012V136.7a10.127 10.127 0 0 0 5.332-1.822 7.368 7.368 0 0 0 3.071-6.148 6.694 6.694 0 0 0-2.538-5.409 12.326 12.326 0 0 0-4.8-2.122l-1.069-.238v-6.705a6.508 6.508 0 0 1 1.492.752 3.982 3.982 0 0 1 1.836 2.7l.134.773 4.276-1.166-.233-.719a9.068 9.068 0 0 0-3.546-4.838 9.719 9.719 0 0 0-3.958-1.52v-2.759h-4.015v2.787a9.986 9.986 0 0 0-4.2 1.676 7.07 7.07 0 0 0-.525 10.715 10.978 10.978 0 0 0 4.72 2.129v7.546c-.118-.042-.248-.076-.371-.121zm4.4-6.422.1.025c3.653.822 3.653 2.638 3.653 3.234a3.144 3.144 0 0 1-1.248 2.654 5.272 5.272 0 0 1-2.506.911zm-5.748-6.664a2.223 2.223 0 0 1-.758-1.987 2.526 2.526 0 0 1 1.3-2.293 5.93 5.93 0 0 1 1.191-.565v5.662a7.909 7.909 0 0 1-1.737-.817z" fill="#000000" opacity="1" data-original="#000000"></path></g></svg>