<svg xmlns="http://www.w3.org/2000/svg" version="1.1" xmlns:xlink="http://www.w3.org/1999/xlink" width="512" height="512" x="0" y="0" viewBox="0 0 512.001 512.001" style="enable-background:new 0 0 512 512" xml:space="preserve" class=""><g><linearGradient id="a" x1="256.681" x2="256.681" y1="512.69" y2="1.547" gradientTransform="matrix(.9978 0 0 -.9978 -.11 512.547)" gradientUnits="userSpaceOnUse"><stop offset="0" style="stop-color:#2AF598" stop-color="#2af598"></stop><stop offset="1" style="stop-color:#009EFD" stop-color="#009efd"></stop></linearGradient><path d="m354.352 365.327 39.91 42.904v102.771h-39.91V365.327zm-77.827 145.675h39.91V266.9l-39.91 39.91v204.192zm156.651 0h39.911V398.254l-39.911.137v112.611zm-313.301.001h39.911V245.447l-39.911-39.911v305.467zm-78.825 0h39.911v-344.38L41.05 126.712v384.291zm157.649-.001h39.911v-186.73l-39.911-39.911v226.641zm273.39-273.39v50.437L329.366 141.084l-80.528 80.528L28.221.998 0 29.219l248.837 248.837 80.113-80.113 115.073 118.493h-51.756v39.911H512V237.611h-39.912v.001z" style="fill:url(#a);" fill=""></path></g></svg>