<svg xmlns="http://www.w3.org/2000/svg" version="1.1" xmlns:xlink="http://www.w3.org/1999/xlink" width="512" height="512" x="0" y="0" viewBox="0 0 512 512" style="enable-background:new 0 0 512 512" xml:space="preserve" class=""><g><rect width="216" height="160" x="272" y="232" fill="#009688" rx="16" opacity="1" data-original="#bebebe" class=""></rect><rect width="216" height="176" x="272" y="24" fill="#009688" rx="16" opacity="1" data-original="#bebebe" class=""></rect><rect width="216" height="160" x="24" y="232" fill="#009688" rx="16" opacity="1" data-original="#bebebe" class=""></rect><path fill="#1e6392" d="M48 256h40v16H48zM112 256h64v16h-64zM48 288h40v16H48zM112 288h64v16h-64zM48 352h40v16H48zM112 352h24v16h-24zM48 320h40v16H48zM112 320h64v16h-64z" opacity="1" data-original="#3192d3" class=""></path><rect width="216" height="176" x="24" y="24" fill="#009688" rx="16" opacity="1" data-original="#bebebe" class=""></rect><path fill="#353535" d="M256 432h112a48 48 0 0 1 48 48v8H96v-8a48 48 0 0 1 48-48zM304 360l-4.97-19.88A16 16 0 0 0 283.508 328h-55.016a16 16 0 0 0-15.522 12.12L208 360z" opacity="1" data-original="#353535" class=""></path><path fill="#374333" d="M256 168a56 56 0 0 0-56 56v28a56 56 0 0 0 22.4 44.8l3.2 2.4A16 16 0 0 1 232 312v16h48v-16a16 16 0 0 1 6.4-12.8l3.2-2.4A56 56 0 0 0 312 252v-28a56 56 0 0 0-56-56z" opacity="1" data-original="#edad2e" class=""></path><path fill="#ffffff" d="M48 56h40v16H48zM112 56h40v16h-40zM176 56h40v16h-40zM48 88h40v16H48zM112 88h40v16h-40zM176 88h40v16h-40zM48 152h40v16H48zM112 152h40v16h-40zM176 152h32v16h-32zM48 120h40v16H48zM112 120h40v16h-40zM176 120h40v16h-40z" opacity="1" data-original="#ededed" class=""></path><path fill="#59ed28" d="m301.657 149.657-11.314-11.314L336 92.687l24 24 40-40 24 24 34.343-34.344 11.314 11.314L424 123.313l-24-24-40 40-24-24z" opacity="1" data-original="#6bad55" class=""></path><g fill="#ededed"><path d="M296 48h48v16h-48zM336 160h32v16h-32zM384 160h32v16h-32zM432 160h32v16h-32zM448 256h16v16h-16zM448 288h16v16h-16zM448 352h16v16h-16zM448 320h16v16h-16zM336 256h48v16h-48zM336 288h48v16h-48zM336 320h48v16h-48zM408 256h16v16h-16zM408 288h16v16h-16zM408 352h16v16h-16zM408 320h16v16h-16z" fill="#ffffff" opacity="1" data-original="#ededed" class=""></path></g><path fill="#575757" d="M373.9 391.733a32 32 0 0 0-22.202-19.808L304 360h-96l-47.698 11.925a32 32 0 0 0-22.202 19.808L120 440h272z" opacity="1" data-original="#575757" class=""></path><path fill="#f9c7b2" d="M232 312h48v16h-48z" opacity="1" data-original="#f9c7b2" class=""></path></g></svg>