<svg xmlns="http://www.w3.org/2000/svg" version="1.1" xmlns:xlink="http://www.w3.org/1999/xlink" width="512" height="512" x="0" y="0" viewBox="0 0 512 512" style="enable-background:new 0 0 512 512" xml:space="preserve" class=""><g><path d="M159.834 379.729h-77.04v-89.745a7 7 0 0 1 7-7h63.04a7 7 0 0 1 7 7v89.745z" style="" fill="#60b7ff" data-original="#60b7ff"></path><path d="M152.834 282.984h-30a7 7 0 0 1 7 7v89.744h30v-89.744a7 7 0 0 0-7-7z" style="" fill="#26a6fe" data-original="#26a6fe"></path><path d="M294.834 379.729h-77.04V207.008a7 7 0 0 1 5.662-6.871l63.04-12.274c4.322-.841 8.338 2.468 8.338 6.871v184.995z" style="" fill="#60b7ff" data-original="#60b7ff"></path><path d="m286.496 187.863-22.152 4.313c.31.79.49 1.648.49 2.558v184.995h30V194.734c0-4.403-4.016-7.713-8.338-6.871z" style="" fill="#26a6fe" data-original="#26a6fe"></path><path d="M429.834 379.729h-77.04V128.03a7 7 0 0 1 7-7h63.04a7 7 0 0 1 7 7v251.699z" style="" fill="#60b7ff" data-original="#60b7ff"></path><path d="M422.834 121.03h-30a7 7 0 0 1 7 7v251.698h30V128.03a7 7 0 0 0-7-7z" style="" fill="#26a6fe" data-original="#26a6fe"></path><path d="M446.467 504.5H65.533c-16.569 0-30-13.431-30-30v-98.386c0-16.569 13.431-30 30-30h380.935c16.569 0 30 13.431 30 30V474.5c-.001 16.569-13.432 30-30.001 30z" style="" fill="#c9f6b0" data-original="#c9f6b0"></path><path d="M446.467 346.114h-30c16.569 0 30 13.431 30 30V474.5c0 16.568-13.431 30-30 30h30c16.569 0 30-13.432 30-30v-98.386c0-16.569-13.431-30-30-30z" style="" fill="#9be69d" data-original="#9be69d" class=""></path><path d="m232.851 191.253-55.472-50.263c-2.81-2.546-6.172-4.462-9.862-5.336-7.955-1.885-16.038.773-21.296 6.576l-64.398 71.073c-8.099 8.938-7.418 22.749 1.52 30.848s22.749 7.418 30.848-1.52l47.049-51.925a4 4 0 0 1 5.65-.278l55.782 50.544c8.938 8.098 22.749 7.417 30.848-1.52L399.292 78.567a5.824 5.824 0 0 1 8.226-.405l18.552 16.809c3.742 3.391 9.732.737 9.734-4.314l.029-77.331a5.824 5.824 0 0 0-6.398-5.797l-76.954 7.631c-5.026.498-7.078 6.72-3.336 10.111l17.374 15.743a5.824 5.824 0 0 1 .405 8.226L238.501 190.975a4 4 0 0 1-5.65.278z" style="" fill="#c9f6b0" data-original="#c9f6b0"></path><path d="m232.851 191.253-55.472-50.263c-2.81-2.546-6.172-4.462-9.862-5.336-7.955-1.885-16.038.773-21.296 6.576l-64.398 71.073c-8.099 8.938-7.418 22.749 1.52 30.848s22.749 7.418 30.848-1.52l47.049-51.925a4 4 0 0 1 5.65-.278l55.782 50.544c8.938 8.098 22.749 7.417 30.848-1.52L399.292 78.567a5.824 5.824 0 0 1 8.226-.405l18.552 16.809c3.742 3.391 9.732.737 9.734-4.314l.029-77.331a5.824 5.824 0 0 0-6.398-5.797l-76.954 7.631c-5.026.498-7.078 6.72-3.336 10.111l17.374 15.743a5.824 5.824 0 0 1 .405 8.226L238.501 190.975a4 4 0 0 1-5.65.278z" style="" fill="#c9f6b0" data-original="#c9f6b0"></path><path d="m232.851 191.253-55.472-50.263c-2.81-2.546-6.172-4.462-9.862-5.336-7.955-1.885-16.038.773-21.296 6.576l-64.398 71.073c-8.099 8.938-7.418 22.749 1.52 30.848s22.749 7.418 30.848-1.52l47.049-51.925a4 4 0 0 1 5.65-.278l55.782 50.544c8.938 8.098 22.749 7.417 30.848-1.52L399.292 78.567a5.824 5.824 0 0 1 8.226-.405l18.552 16.809c3.742 3.391 9.732.737 9.734-4.314l.029-77.331a5.824 5.824 0 0 0-6.398-5.797l-76.954 7.631c-5.026.498-7.078 6.72-3.336 10.111l17.374 15.743a5.824 5.824 0 0 1 .405 8.226L238.501 190.975a4 4 0 0 1-5.65.278z" style="" fill="#c9f6b0" data-original="#c9f6b0"></path><path d="m232.851 191.253-55.472-50.263c-2.81-2.546-6.172-4.462-9.862-5.336-7.955-1.885-16.038.773-21.296 6.576l-64.398 71.073c-8.099 8.938-7.418 22.749 1.52 30.848s22.749 7.418 30.848-1.52l47.049-51.925a4 4 0 0 1 5.65-.278l55.782 50.544c8.938 8.098 22.749 7.417 30.848-1.52L399.292 78.567a5.824 5.824 0 0 1 8.226-.405l18.552 16.809c3.742 3.391 9.732.737 9.734-4.314l.029-77.331a5.824 5.824 0 0 0-6.398-5.797l-76.954 7.631c-5.026.498-7.078 6.72-3.336 10.111l17.374 15.743a5.824 5.824 0 0 1 .405 8.226L238.501 190.975a4 4 0 0 1-5.65.278z" style="" fill="#9be69d" data-original="#9be69d" class=""></path><path d="M82.79 346.11v-56.13c0-3.86 3.14-7 7-7h63.04c3.87 0 7 3.14 7 7v56.13M294.78 193.92c.03.27.05.54.05.81v151.38M217.79 346.11V236.55M360.82 121.03h62.01c3.87 0 7 3.13 7 7v218.08M352.79 346.11V129.89M35.533 414.539v-38.425c0-16.569 13.431-30 30-30h380.935c16.569 0 30 13.431 30 30V474.5c0 16.569-13.431 30-30 30H65.533c-16.569 0-30-13.431-30-30v-24.961M361.722 394.001v62.611" style="stroke-width:15;stroke-linecap:round;stroke-linejoin:round;stroke-miterlimit:10;" fill="none" stroke="#000000" stroke-width="15" stroke-linecap="round" stroke-linejoin="round" stroke-miterlimit="10" data-original="#000000" class=""></path><path d="M331.611 394.231H306.42v62.152M306.42 424.718h23.19M391.429 394.001h34.577M408.648 396.001v60.611M159.343 426.729l26.3 29.883M151.792 394.001v62.611M185.643 410.273c0 8.987-7.88 16.272-17.193 16.272-4.619 0-16.522.072-16.522.072s-.074-11.814-.074-16.344c0-3.72-.041-16.272-.041-16.272h16.638c9.312 0 17.192 7.286 17.192 16.272zM85.994 394.001v62.611M121.442 411.67c0 9.758-8.257 17.669-18.015 17.669-4.839 0-17.312.078-17.312.078s-.078-12.828-.078-17.747c0-4.04-.043-17.669-.043-17.669h17.434c9.757 0 18.014 7.911 18.014 17.669z" style="stroke-width:15;stroke-linecap:round;stroke-linejoin:round;stroke-miterlimit:10;" fill="none" stroke="#000000" stroke-width="15" stroke-linecap="round" stroke-linejoin="round" stroke-miterlimit="10" data-original="#000000" class=""></path><circle cx="244.718" cy="425.307" r="31.305" style="stroke-width:15;stroke-linecap:round;stroke-linejoin:round;stroke-miterlimit:10;" fill="none" stroke="#000000" stroke-width="15" stroke-linecap="round" stroke-linejoin="round" stroke-miterlimit="10" data-original="#000000" class=""></circle><path d="m309.945 112.125-71.444 78.85a4 4 0 0 1-5.65.278l-55.472-50.263c-2.81-2.546-6.172-4.462-9.862-5.336-7.955-1.885-16.038.773-21.296 6.576l-64.398 71.073c-8.099 8.938-7.418 22.749 1.52 30.848h0c8.938 8.099 22.749 7.418 30.848-1.52l47.049-51.925a4 4 0 0 1 5.65-.278l55.782 50.544c8.938 8.098 22.749 7.417 30.848-1.52L399.292 78.567a5.824 5.824 0 0 1 8.226-.405l18.552 16.809c3.742 3.391 9.732.737 9.734-4.314l.029-77.331a5.824 5.824 0 0 0-6.398-5.797l-76.954 7.631c-5.026.498-7.078 6.72-3.336 10.111l17.374 15.743a5.824 5.824 0 0 1 .405 8.226l-33.303 36.755" style="stroke-width:15;stroke-linecap:round;stroke-linejoin:round;stroke-miterlimit:10;" fill="none" stroke="#000000" stroke-width="15" stroke-linecap="round" stroke-linejoin="round" stroke-miterlimit="10" data-original="#000000" class=""></path></g></svg>