<svg xmlns="http://www.w3.org/2000/svg" version="1.1" xmlns:xlink="http://www.w3.org/1999/xlink" width="512" height="512" x="0" y="0" viewBox="0 0 512 512" style="enable-background:new 0 0 512 512" xml:space="preserve" class=""><g><path d="M220.151 156.796 256 141.933l35.85 14.863a15.031 15.031 0 0 0 14.56-1.72 15.021 15.021 0 0 0 6.13-13.322l-3.05-38.687 25.21-29.515a14.996 14.996 0 0 0 2.86-14.373 14.967 14.967 0 0 0-10.77-9.952l-37.73-9.062-20.27-33.096c-5.396-9.426-20.185-9.425-25.58 0l-20.27 33.096-37.73 9.062a14.967 14.967 0 0 0-10.77 9.952 14.996 14.996 0 0 0 2.86 14.373l25.21 29.515-3.05 38.687a15.02 15.02 0 0 0 6.13 13.322 15.022 15.022 0 0 0 14.561 1.72zM511.267 118.189a14.967 14.967 0 0 0-10.77-9.952l-37.73-9.062-20.27-33.096a15.002 15.002 0 0 0-25.58 0l-20.27 33.096-37.73 9.062a14.967 14.967 0 0 0-10.77 9.952 14.996 14.996 0 0 0 2.86 14.373l25.21 29.515-3.05 38.687a15.02 15.02 0 0 0 6.13 13.322 15.015 15.015 0 0 0 14.56 1.72l35.85-14.863 35.85 14.863a15.031 15.031 0 0 0 14.56-1.72 15.021 15.021 0 0 0 6.13-13.322l-3.05-38.687 25.21-29.515a14.996 14.996 0 0 0 2.86-14.373zM123.883 216.947c3.12 0 6.21-.97 8.82-2.86a15.021 15.021 0 0 0 6.13-13.322l-3.05-38.687 25.21-29.515a14.996 14.996 0 0 0 2.86-14.373 14.967 14.967 0 0 0-10.77-9.952l-37.73-9.062-20.27-33.096a15.002 15.002 0 0 0-25.58 0l-20.27 33.096-37.73 9.062a14.967 14.967 0 0 0-10.77 9.952 14.996 14.996 0 0 0 2.86 14.373l25.21 29.515-3.05 38.687a15.02 15.02 0 0 0 6.13 13.322 15.015 15.015 0 0 0 14.56 1.72l35.85-14.863 35.85 14.863c1.85.76 3.8 1.14 5.74 1.14zM432.58 360.82l-17.75 101.73c-4.46 25.47-26.57 44.05-52.42 44.05H260.04a54.29 54.29 0 0 1-20.65-4.1c-6.49-2.7-12.46-6.64-17.51-11.7-.31-.31-.63-.62-.95-.93V320.89l.68-.24a49.678 49.678 0 0 0 30.44-31.32l8.95-28.64 12.06-38.59c3.55-10.85 15.21-16.76 26.07-13.21 19.88 6.48 32.52 24.96 32.52 44.79 0 4.86-.76 9.8-2.36 14.66l-13.44 44.1h76.07c25.64 0 45.08 23.13 40.66 48.38zM176.018 512h-69.435c-8.237 0-14.914-6.677-14.914-14.914V317.261c0-8.237 6.677-14.914 14.914-14.914h69.435c8.237 0 14.914 6.677 14.914 14.914v179.825c0 8.237-6.677 14.914-14.914 14.914z" fill="#000000" opacity="1" data-original="#000000" class=""></path></g></svg>