<svg fill="none" height="16" viewBox="0 0 16 16" width="16" xmlns="http://www.w3.org/2000/svg">
    <g id="CaretRight">
        <path d="M11.3537 8.35375L6.35372 13.3538C6.30727 13.4002 6.25212 13.4371 6.19142 13.4622C6.13072 13.4873 6.06567 13.5003 5.99997 13.5003C5.93428 13.5003 5.86922 13.4873 5.80852 13.4622C5.74783 13.4371 5.69268 13.4002 5.64622 13.3538C5.59977 13.3073 5.56292 13.2521 5.53778 13.1914C5.51263 13.1308 5.49969 13.0657 5.49969 13C5.49969 12.9343 5.51263 12.8692 5.53778 12.8086C5.56292 12.7479 5.59977 12.6927 5.64622 12.6462L10.2931 8L5.64622 3.35375C5.5524 3.25993 5.49969 3.13268 5.49969 3C5.49969 2.86732 5.5524 2.74007 5.64622 2.64625C5.74004 2.55243 5.86729 2.49972 5.99997 2.49972C6.13265 2.49972 6.2599 2.55243 6.35372 2.64625L11.3537 7.64625C11.4002 7.69269 11.4371 7.74783 11.4623 7.80853C11.4874 7.86923 11.5004 7.93429 11.5004 8C11.5004 8.06571 11.4874 8.13077 11.4623 8.19147C11.4371 8.25217 11.4002 8.30731 11.3537 8.35375Z"
            fill="#666668"
            id="Vector" />
    </g>
</svg>
