<svg xmlns="http://www.w3.org/2000/svg" version="1.1" xmlns:xlink="http://www.w3.org/1999/xlink" width="512" height="512" x="0" y="0" viewBox="0 0 64 64" style="enable-background:new 0 0 512 512" xml:space="preserve" class=""><g><linearGradient id="a" x1="4" x2="60" y1="32" y2="32" gradientUnits="userSpaceOnUse"><stop offset="0" stop-color="#9cffac"></stop><stop offset="1" stop-color="#00b59c"></stop></linearGradient><path fill="url(#a)" d="M57 26.78h-2.55a.992.992 0 0 1-.92-.62l-2.18-5.25a.988.988 0 0 1 .22-1.09l1.8-1.8a3 3 0 0 0 0-4.24l-3.15-3.15a3 3 0 0 0-4.24 0l-1.8 1.8a.988.988 0 0 1-1.09.22l-5.25-2.18a.992.992 0 0 1-.62-.92V7a3.002 3.002 0 0 0-3-3h-4.44a3.002 3.002 0 0 0-3 3v2.55a.992.992 0 0 1-.62.92l-5.25 2.18a.988.988 0 0 1-1.09-.22l-1.8-1.8a3 3 0 0 0-4.24 0l-3.15 3.15a3 3 0 0 0 0 4.24l1.8 1.8a.988.988 0 0 1 .22 1.09l-2.18 5.25a.992.992 0 0 1-.92.62H7a3.002 3.002 0 0 0-3 3v4.44a3.002 3.002 0 0 0 3 3h2.55a.992.992 0 0 1 .92.62l2.18 5.25a.988.988 0 0 1-.22 1.09l-1.8 1.8a3 3 0 0 0 0 4.24l3.15 3.15a3 3 0 0 0 4.24 0l1.8-1.8a.988.988 0 0 1 1.09-.22l5.25 2.18a.992.992 0 0 1 .62.92V57a3.002 3.002 0 0 0 3 3h4.44a3.002 3.002 0 0 0 3-3v-2.55a.992.992 0 0 1 .62-.92l5.25-2.18a.988.988 0 0 1 1.09.22l1.8 1.8a3 3 0 0 0 4.24 0l3.15-3.15a3 3 0 0 0 0-4.24l-1.8-1.8a.988.988 0 0 1-.22-1.09l2.18-5.25a.992.992 0 0 1 .92-.62H57a3.002 3.002 0 0 0 3-3v-4.44a3.002 3.002 0 0 0-3-3zM32 43c-14.594-.598-14.59-21.405 0-22a11 11 0 0 1 0 22z" opacity="1" data-original="url(#a)" class=""></path></g></svg>